name C:\Users\u0101727\Documents\MyRepositories\upper-imu-dc\Results\main_tracking\Case_87\kinematics.mot
datacolumns 43
datarows 11
range 4.62000000 4.82000000
endheader 
time	clav_prot	clav_elev	scapula_abduction	scapula_elevation	scapula_upward_rot	scapula_winging	plane_elv	shoulder_elv	axial_rot	TrapeziusScapula_M/activation	TrapeziusScapula_S/activation	TrapeziusScapula_I/activation	TrapeziusClavicle_S/activation	SerratusAnterior_I/activation	SerratusAnterior_M/activation	SerratusAnterior_S/activation	Rhomboideus_S/activation	Rhomboideus_I/activation	LevatorScapulae/activation	Coracobrachialis/activation	DeltoideusClavicle_A/activation	DeltoideusScapula_P/activation	DeltoideusScapula_M/activation	LatissimusDorsi_S/activation	LatissimusDorsi_M/activation	LatissimusDorsi_I/activation	PectoralisMajorClavicle_S/activation	PectoralisMajorThorax_I/activation	PectoralisMajorThorax_M/activation	TeresMajor/activation	Infraspinatus_I/activation	Infraspinatus_S/activation	PectoralisMinor/activation	TeresMinor/activation	Subscapularis_S/activation	Subscapularis_M/activation	Subscapularis_I/activation	Supraspinatus_P/activation	Supraspinatus_A/activation	TRIlong/activation	BIC_long/activation	BIC_brevis/activation	
          4.62000000	        -33.12126635	         -0.53154701	        -18.94679839	         -6.06914857	         31.72500583	         -1.68072704	          2.58341590	         73.80260972	          2.75378106	          0.01009169	          0.08159144	          0.01000004	          0.02676975	          0.05626719	          0.08865525	          0.01000009	          0.01000310	          0.01000073	          0.01948259	          0.03345503	          0.10162412	          0.01000000	          0.11006085	          0.01000001	          0.01000000	          0.01000001	          0.02598004	          0.01000000	          0.01000010	          0.01000001	          0.01074782	          0.01122561	          0.01000001	          0.01000005	          0.01263404	          0.01000035	          0.01000005	          0.03640340	          0.07615559	          0.01000000	          0.06938184	          0.02946460	
          4.64000000	        -33.59686889	         -0.33935957	        -19.33027099	         -6.07136851	         32.34020006	         -2.01963920	          3.38427495	         73.95678611	          2.73483563	          0.01024801	          0.08195444	          0.01000004	          0.02662030	          0.05612231	          0.08845655	          0.01000009	          0.01000299	          0.01000072	          0.01910120	          0.03471038	          0.10290902	          0.01000000	          0.10972895	          0.01000001	          0.01000000	          0.01000001	          0.02630128	          0.01000000	          0.01000010	          0.01000001	          0.01079762	          0.01102598	          0.01000001	          0.01000005	          0.01290810	          0.01000035	          0.01000005	          0.03675932	          0.07679407	          0.01000000	          0.06944877	          0.03051276	
          4.66000000	        -34.07688022	         -0.14773963	        -19.72013199	         -6.07191863	         32.95013153	         -2.36389099	          4.20026608	         74.09862773	          2.71229232	          0.01059763	          0.08228670	          0.01000004	          0.02647439	          0.05598240	          0.08823547	          0.01000009	          0.01000286	          0.01000070	          0.01871569	          0.03589804	          0.10406009	          0.01000000	          0.10942695	          0.01000001	          0.01000000	          0.01000001	          0.02656359	          0.01000001	          0.01000011	          0.01000001	          0.01093217	          0.01088945	          0.01000001	          0.01000005	          0.01311414	          0.01000034	          0.01000005	          0.03706452	          0.07726711	          0.01000000	          0.06941271	          0.03152113	
          4.68000000	        -34.56062182	          0.04278508	        -20.11583838	         -6.07098616	         33.55380195	         -2.71299720	          5.02949082	         74.22947476	          2.68531711	          0.01096379	          0.08260328	          0.01000004	          0.02633300	          0.05588303	          0.08798178	          0.01000009	          0.01000271	          0.01000067	          0.01828568	          0.03708478	          0.10515267	          0.01000000	          0.10908953	          0.01000001	          0.01000000	          0.01000001	          0.02680571	          0.01000001	          0.01000011	          0.01000001	          0.01115055	          0.01079215	          0.01000001	          0.01000005	          0.01327970	          0.01000033	          0.01000005	          0.03734584	          0.07765409	          0.01000000	          0.06933055	          0.03253857	
          4.70000000	        -35.04778899	          0.23106151	        -20.51636668	         -6.06944308	         34.15145351	         -3.06657090	          5.86932701	         74.35019378	          2.65004216	          0.01133170	          0.08285930	          0.01000005	          0.02619801	          0.05584204	          0.08774726	          0.01000009	          0.01000252	          0.01000063	          0.01781552	          0.03835808	          0.10628548	          0.01000000	          0.10867446	          0.01000001	          0.01000000	          0.01000001	          0.02708999	          0.01000001	          0.01000011	          0.01000001	          0.01143251	          0.01070204	          0.01000001	          0.01000005	          0.01344344	          0.01000032	          0.01000005	          0.03764101	          0.07806069	          0.01000000	          0.06927193	          0.03363140	
          4.72000000	        -35.53817096	          0.41567587	        -20.92026317	         -6.06845006	         34.74400319	         -3.42426273	          6.71696465	         74.46133378	          2.60125289	          0.01166951	          0.08303253	          0.01000005	          0.02607182	          0.05586715	          0.08757203	          0.01000009	          0.01000233	          0.01000059	          0.01732230	          0.03978284	          0.10753711	          0.01000000	          0.10816140	          0.01000001	          0.01000000	          0.01000001	          0.02745897	          0.01000001	          0.01000012	          0.01000001	          0.01175212	          0.01058771	          0.01000001	          0.01000005	          0.01363390	          0.01000031	          0.01000005	          0.03797393	          0.07855945	          0.01000000	          0.06929308	          0.03484937	
          4.74000000	        -36.03135004	          0.59543130	        -21.32578349	         -6.06897843	         35.33238969	         -3.78570675	          7.56995642	         74.56336193	          2.53433486	          0.01193993	          0.08311123	          0.01000005	          0.02595679	          0.05594467	          0.08748430	          0.01000009	          0.01000215	          0.01000055	          0.01683238	          0.04140161	          0.10895395	          0.01000000	          0.10753621	          0.01000001	          0.01000000	          0.01000000	          0.02794218	          0.01000001	          0.01000013	          0.01000001	          0.01208106	          0.01042772	          0.01000001	          0.01000005	          0.01387028	          0.01000031	          0.01000005	          0.03835961	          0.07919153	          0.01000000	          0.06942030	          0.03622657	
          4.76000000	        -36.52647971	          0.76969931	        -21.73105020	         -6.07146414	         35.91704616	         -4.15045917	          8.42659788	         74.65688288	          2.44671625	          0.01212896	          0.08308689	          0.01000005	          0.02585036	          0.05604584	          0.08748607	          0.01000009	          0.01000199	          0.01000050	          0.01637363	          0.04320875	          0.11051307	          0.01000000	          0.10679575	          0.01000001	          0.01000000	          0.01000000	          0.02854283	          0.01000001	          0.01000014	          0.01000001	          0.01239583	          0.01022855	          0.01000001	          0.01000005	          0.01415905	          0.01000030	          0.01000005	          0.03879608	          0.07994367	          0.01000000	          0.06962544	          0.03776535	
          4.78000000	        -37.02222346	          0.93853932	        -22.13423466	         -6.07568741	         36.49760891	         -4.51794800	          9.28608032	         74.74275428	          2.33853183	          0.01224090	          0.08297108	          0.01000006	          0.02574706	          0.05613898	          0.08753710	          0.01000009	          0.01000185	          0.01000047	          0.01595538	          0.04513453	          0.11211802	          0.01000000	          0.10595564	          0.01000001	          0.01000000	          0.01000000	          0.02921911	          0.01000001	          0.01000015	          0.01000001	          0.01267189	          0.01005110	          0.01000001	          0.01000004	          0.01448129	          0.01000030	          0.01000005	          0.03924441	          0.08071956	          0.01000000	          0.06983257	          0.03941655	
          4.80000000	        -37.51686421	          1.10262106	        -22.53376718	         -6.08084816	         37.07287179	         -4.88746341	         10.14841157	         74.82209030	          2.21255756	          0.01230020	          0.08279755	          0.01000006	          0.02564266	          0.05620626	          0.08758218	          0.01000009	          0.01000174	          0.01000043	          0.01557093	          0.04707079	          0.11364637	          0.01000000	          0.10506125	          0.01000001	          0.01000000	          0.01000000	          0.02991298	          0.01000001	          0.01000015	          0.01000001	          0.01288135	          0.01000206	          0.01000001	          0.01000004	          0.01481487	          0.01000031	          0.01000005	          0.03965571	          0.08140087	          0.01000000	          0.06996056	          0.04110727	
          4.82000000	        -38.00854569	          1.26298495	        -22.92851738	         -6.08580064	         37.64098063	         -5.25819486	         11.01418165	         74.89623166	          2.07355515	          0.01234232	          0.08263326	          0.01000006	          0.02553240	          0.05625644	          0.08757267	          0.01000009	          0.01000163	          0.01000039	          0.01518182	          0.04889125	          0.11499141	          0.01000000	          0.10423147	          0.01000001	          0.01000000	          0.01000000	          0.03053981	          0.01000001	          0.01000020	          0.01000001	          0.01311337	          0.01000135	          0.01000001	          0.01000004	          0.01508700	          0.01000031	          0.01000005	          0.03999624	          0.08186766	          0.01000000	          0.06993230	          0.04273950	
